<svg xmlns="http://www.w3.org/2000/svg" viewBox="0 0 900 620" role="img" aria-label="Retail product discovery proof tile surface">
  <defs>
    <linearGradient id="bg" x1="0" x2="1" y1="0" y2="1"><stop stop-color="#132331"/><stop offset="1" stop-color="#061017"/></linearGradient>
    <radialGradient id="glow" cx="72%" cy="18%" r="62%"><stop stop-color="#37D7FF" stop-opacity="0.35"/><stop offset="1" stop-color="#37D7FF" stop-opacity="0"/></radialGradient>
    <pattern id="grid" width="42" height="42" patternUnits="userSpaceOnUse"><path d="M42 0H0v42" fill="none" stroke="#EAF8FF" stroke-opacity="0.055"/></pattern>
  </defs>
  <rect width="900" height="620" rx="44" fill="url(#bg)"/>
  <rect width="900" height="620" rx="44" fill="url(#glow)"/>
  <rect x="28" y="28" width="844" height="564" rx="34" fill="url(#grid)" opacity="0.9"/>
  <rect x="72" y="84" width="240" height="16" rx="8" fill="#37D7FF" opacity="0.78"/>
  <rect x="72" y="136" width="490" height="58" rx="18" fill="#F2FBFF" opacity="0.92"/>
  <rect x="72" y="220" width="650" height="26" rx="13" fill="#AFC9D8" opacity="0.34"/>
  <rect x="72" y="270" width="520" height="26" rx="13" fill="#AFC9D8" opacity="0.23"/>
  <rect x="72" y="360" width="250" height="120" rx="28" fill="#EAF8FF" opacity="0.08" stroke="#EAF8FF" stroke-opacity="0.13"/>
  <rect x="350" y="332" width="240" height="148" rx="28" fill="#EAF8FF" opacity="0.07" stroke="#EAF8FF" stroke-opacity="0.11"/>
  <rect x="618" y="292" width="210" height="188" rx="28" fill="#EAF8FF" opacity="0.06" stroke="#EAF8FF" stroke-opacity="0.10"/>
  <text x="72" y="550" fill="#37D7FF" font-family="Arial, Helvetica, sans-serif" font-size="28" font-weight="800" letter-spacing="7">ERASPACE</text>
</svg>
